<svg xmlns="http://www.w3.org/2000/svg" xmlns:xlink="http://www.w3.org/1999/xlink" viewBox="0 0 146.1 155.36"><defs><style>.cls-1,.cls-5{fill:#e5ae89;}.cls-2{fill:#d8a17c;}.cls-3{fill:#687c9f;}.cls-4{fill:#526684;}.cls-5{stroke:#d8a17c;stroke-miterlimit:10;}.cls-6{fill:#d30000;}.cls-7{fill:#fcfafa;}.cls-8{fill:url(#linear-gradient);}</style><linearGradient id="linear-gradient" x1="150.92" y1="275.87" x2="150.92" y2="134.08" gradientUnits="userSpaceOnUse"><stop offset="0" stop-color="#42210b"/><stop offset="0.04" stop-color="#3d1e0a"/><stop offset="0.27" stop-color="#221106"/><stop offset="0.5" stop-color="#0f0803"/><stop offset="0.74" stop-color="#040201"/><stop offset="1"/></linearGradient></defs><title>jesseWaving</title><g id="wavingArm"><g id="bicep"><path class="cls-1" d="M107.16,276.8c1-.81,1.55-2.31,2.27-3.35,1.75-2.54,2.54-5.42,3.75-8.16.59-1.34,6.46-15.28,5.61-15.72l-16.27-8.22c.46.24-1.9,9-2.12,9.88a38.59,38.59,0,0,1-2,6.84c-1,2.2-3.06,3.3-4.8,4.92a.81.81,0,0,1-.4-.83" transform="translate(-47.8 -134.08)"/><path class="cls-2" d="M107.52,277.15c2.5-2.43,3.94-6.27,5.21-9.46.73-1.82,1.51-3.61,2.26-5.42,1-2.46,2-4.92,2.91-7.41.46-1.27,1.72-3.55,1.47-5-.15-.8-.55-.87-1.26-1.23l-5.44-2.75-9.89-5c-.42-.21-1,.24-.69.69s-.59,3.15-.74,3.8c-.37,1.57-.78,3.14-1.18,4.7-.49,1.91-.87,3.86-1.47,5.74a9.56,9.56,0,0,1-2.52,4.31,17.86,17.86,0,0,1-2.5,1.87c-.09-.64-1.05-.37-1,.26a1.37,1.37,0,0,0,.52,1.06.52.52,0,0,0,.71,0c2.09-1.86,4.23-3.27,5.27-6a64.19,64.19,0,0,0,2-7.34c.5-1.93,1-3.85,1.42-5.79.16-.74.81-2.42.32-3.15l-.69.69,8.35,4.22,5.62,2.84a11,11,0,0,1,1.75.88c.58.44.34.05.37.25.24,1.37-1.13,3.82-1.59,5.07-.82,2.2-1.69,4.38-2.58,6.54-.59,1.45-1.22,2.88-1.82,4.32-1.44,3.47-2.78,7.84-5.56,10.54-.46.45.24,1.15.71.7Z" transform="translate(-47.8 -134.08)"/></g><g id="forearm"><path class="cls-1" d="M100.16,260.47a51,51,0,0,0-22.71-18.22l-7,6.65A84.67,84.67,0,0,0,88,270.35c4.87,4.27,10.84,8.12,17.17,7.39,3.79-.43,5.2-6,6.59-8.8" transform="translate(-47.8 -134.08)"/><path class="cls-2" d="M100.59,260.22a52.51,52.51,0,0,0-23-18.45.5.5,0,0,0-.49.13l-7,6.64a.52.52,0,0,0-.08.61c5.67,9.78,13.45,19.68,23.15,25.76,3.49,2.19,9,4.68,13.18,3,3.39-1.33,4.42-5.79,5.81-8.74.27-.58-.59-1.09-.86-.51-1,2.16-1.71,4.51-3.14,6.45-2.36,3.21-6.82,2.35-10.11,1.12-7-2.61-12.86-8.71-17.67-14.25a83,83,0,0,1-7-9.27c-.55-.85-1-1.77-1.62-2.59a9.44,9.44,0,0,0-.87-1c0-.3,1.14-1.09,1.35-1.29l4.22-4c.23-.21.89-1.1,1.21-1.14s1.28.72,1.67.92c.82.43,1.66.8,2.48,1.23a51.52,51.52,0,0,1,17.87,15.87c.37.52,1.23,0,.86-.5Z" transform="translate(-47.8 -134.08)"/></g><g id="hand"><path class="cls-1" d="M72,250.18c-6.85.53-12.19-8.61-16.24-14.16l.53.82L49,230.07c-.41-.37-.86-.91-.64-1.42a1.13,1.13,0,0,1,.72-.55,4.18,4.18,0,0,1,3.43.73c1,.67,1.85,1.56,2.83,2.28a9.69,9.69,0,0,0,4.5,1.77H60a69.61,69.61,0,0,0-8.84-9,5.7,5.7,0,0,1-1.36-1.46,1.78,1.78,0,0,1,0-1.9,2.16,2.16,0,0,1,2.58-.25A10.64,10.64,0,0,1,55,222.17l4.83,4.37c1.39,1.25,3,2.6,4.89,2.4l-.19-.62c-2.74-5.9-4.51-7.61-8.82-13.87a1,1,0,0,1-.24-.56c0-.42.47-.67.88-.74,1.73-.28,3.37.87,4.6,2.11,3.77,3.79,6.08,9.12,10.69,11.83v.18a46.43,46.43,0,0,0-7.17-13.69c-.48-.63-1-1.45-.62-2.14a1.33,1.33,0,0,1,1.45-.58,3.29,3.29,0,0,1,1.45.82,26.06,26.06,0,0,1,5.2,7l2.56,4.38c.75,1.28,2.76,6,2.71,7.44l-4.48,5.45a10.58,10.58,0,0,1,4.48-5.45l0,1c.61-3.23,1.31-6.66,3.58-9l.76-.09c1.53,2.68,1.55,6,.87,9a81.76,81.76,0,0,1-3,8.77,5.64,5.64,0,0,0-.39,3.42" transform="translate(-47.8 -134.08)"/><path class="cls-2" d="M72,249.68c-7.39.28-12.1-8.79-15.81-13.91-.37-.51-1.22,0-.86.51l.53.81.78-.6L52,232.18c-.62-.56-2-1.41-2.35-2.15-.85-.58-.39-1,1.37-1.37a7.12,7.12,0,0,1,2.25,1.41c1.94,1.57,4.09,3.36,6.77,3.3a.5.5,0,0,0,.35-.85,72.3,72.3,0,0,0-5.49-6c-1-.94-2-1.85-3-2.73s-.91-.5-.49-2c-.09-1.23.21-1.56.93-1A5,5,0,0,1,54.06,222c3,2.53,6.36,7.43,10.68,7.46a.5.5,0,0,0,.48-.63,28.6,28.6,0,0,0-3.89-7.29c-.72-1.08-1.49-2.14-2.25-3.2-.62-.86-1.24-1.72-1.85-2.59s-2.27-2.24.46-2c1.81.15,3.59,2.54,4.63,3.82s2.16,2.87,3.25,4.3a28.64,28.64,0,0,0,2.91,3.41c.29.28,2.67,2,2.67,2l1-.13a48.24,48.24,0,0,0-6.45-12.77c-.68-1-1.18-.89.27-1.43s1.28-.21,2.13.78a24.77,24.77,0,0,1,2.23,3.14c1.31,2.11,2.59,4.27,3.78,6.44.91,1.67,3.22,5.63,2.4,7.31s-2.83,3.44-4.09,5l.83.49a10.73,10.73,0,0,1,4.26-5.15l-.76-.43,0,1c0,.55.87.71,1,.14a21.89,21.89,0,0,1,2.19-7.13c.93-1.56,1.35-2.35,2-.1a12.44,12.44,0,0,1,.42,4.46A29.54,29.54,0,0,1,80.12,237c-.84,2.2-1.91,4.34-1.53,6.73.1.64,1.07.37,1-.26-.38-2.35,1-4.93,1.85-7.07a32.65,32.65,0,0,0,1.71-5.69A13.33,13.33,0,0,0,82,222.08a.47.47,0,0,0-.43-.24c-3.46.43-4.31,6.82-4.82,9.51l1,.13,0-1a.5.5,0,0,0-.75-.43,11.88,11.88,0,0,0-4.71,5.74c-.17.46.52.87.83.49l2.55-3.09c.58-.71,1.77-1.68,2.06-2.58.45-1.38-1-4-1.51-5.18a58.51,58.51,0,0,0-3.59-6.66c-.79-1.36-6.71-11.75-9.15-7.64-1.07,1.8,2,4.56,2.8,5.88a47.41,47.41,0,0,1,4.91,10.38.5.5,0,0,0,1-.13v-.18a.48.48,0,0,0-.25-.43c-3.64-2.29-5.82-6-8.43-9.27-1.36-1.73-5-6.37-7.84-4.48a1.22,1.22,0,0,0-.58,1.23c.11.93,1.28,2.05,1.81,2.8l1.76,2.46c2.1,2.93,4.57,6.19,5.63,9.68l.48-.64c-4.07,0-7.56-5.39-10.6-7.68-1.18-.89-3.4-2.12-4.65-.6-1.47,1.79.86,3.62,2,4.65a72.76,72.76,0,0,1,8.15,8.41l.36-.85c-3.1.07-5-2.5-7.32-4-1.09-.68-3.24-1.55-4.41-.49-.94.85-.4,1.72.29,2.51,2.13,2.47,5,4.57,7.39,6.78.4.36,1.11-.11.78-.61l-.53-.82-.86.51c4,5.46,8.8,14.7,16.67,14.4.64,0,.64-1,0-1Z" transform="translate(-47.8 -134.08)"/><path class="cls-1" d="M61.16,236.4a3.13,3.13,0,0,1,1.07-2.28,13.39,13.39,0,0,1,7.29-4.06" transform="translate(-47.8 -134.08)"/><path class="cls-2" d="M61.29,236.4c.09-2,2.33-3.58,3.86-4.52a14.31,14.31,0,0,1,4.4-1.7c.16,0,.09-.27-.07-.24a14,14,0,0,0-5.76,2.63c-1.24,1-2.61,2.16-2.68,3.83,0,.17.24.17.25,0Z" transform="translate(-47.8 -134.08)"/></g></g><g id="rightArm"><g id="rightArm-2" data-name="rightArm"><path class="cls-1" d="M173.9,277.26c0-.07-.14.08-.06.11a25.12,25.12,0,0,1-2.59-.57c2.58-2.91,6.83-5,8.46-8.54l-.21.32c-.48-9.11-.77-18.32-.85-27.55l14.37.53.32,27.37,0-.37c-.16,2.36-.48,5-2.1,6.54-5.07,4.94-7.91,9.28-14.54,12.81" transform="translate(-47.8 -134.08)"/><path class="cls-2" d="M173.76,276.78h-.07a.52.52,0,0,0-.35.62l0,.1.48-.64a8.43,8.43,0,0,1-2.34-.5l.1.78c2.78-3,6.63-4.92,8.54-8.64a.5.5,0,0,0-.86-.51l-.21.33.93.25q-.63-12-.81-24.09c0-.49,0-1,0-1.48a.92.92,0,0,0-.25-1.23c.31-.85-.56.19.07-.24a5.42,5.42,0,0,1,1.55.06l5.3.2,5.29.19a4.7,4.7,0,0,1,1.55.06c.06,0,.27,0,.32,0-.38-.38-.45,2.14-.45,2.43l.29,24.44c0,.54.89.71,1,.13l.05-.37-1-.13c-.2,2.73-.65,4.74-2.55,6.78-1.33,1.42-2.7,2.81-4,4.23a39.8,39.8,0,0,1-9.8,7.91c-.56.31-.06,1.17.5.86a45,45,0,0,0,11-9.16c1.46-1.56,3.4-3.05,4.5-4.89a12.74,12.74,0,0,0,1.35-5.73c0-.56-.9-.69-1-.13l-.06.37,1,.13-.32-27.37a.51.51,0,0,0-.5-.5l-14.37-.53a.51.51,0,0,0-.5.5q.14,13.78.85,27.55a.5.5,0,0,0,.93.25l.21-.32-.86-.51c-1.87,3.63-5.67,5.54-8.39,8.45a.5.5,0,0,0,.11.78,9.1,9.1,0,0,0,2.84.64c.36.05.53-.35.48-.63v-.1l-.35.62.07,0c.63-.13.36-1.09-.27-1Z" transform="translate(-47.8 -134.08)"/></g></g><g id="neck"><path class="cls-1" d="M135.52,203.36a48.17,48.17,0,0,1,.77,9l.09.23a10.65,10.65,0,0,0,5.61,3.13,28.27,28.27,0,0,0,6.5.54,14.38,14.38,0,0,0,6.65-1.08,15,15,0,0,0,3.78-3.14l-.29-.23a37.55,37.55,0,0,1,.38-10.53" transform="translate(-47.8 -134.08)"/><path class="cls-1" d="M135.16,203.46a51.7,51.7,0,0,1,.72,6.67,7.33,7.33,0,0,0,.16,2.65c.79,1.83,4.11,2.93,5.85,3.35a28.6,28.6,0,0,0,10,.4c3.09-.41,5.15-2,7.28-4.18a.38.38,0,0,0,0-.53c-.72-.56-.39-3.43-.38-4.28a40.47,40.47,0,0,1,.56-6.11c.08-.47-.64-.67-.72-.19a41.5,41.5,0,0,0-.57,5.34c-.06,1.72.42,3.7.19,5.38,0,.07.24.29.24.28s-1.53,1.24-1.62,1.31a10.67,10.67,0,0,1-7.12,2.38c-3.87.1-8.27.11-11.58-2.19-2-1.37-1.48-2.75-1.63-5a51.17,51.17,0,0,0-.68-5.51c-.08-.47-.8-.27-.72.2Z" transform="translate(-47.8 -134.08)"/></g><g id="shirt"><path class="cls-3" d="M192.93,228.56c-.76-6.81-3.78-14-9.9-17-4.22-2.12-9.18-2-13.9-1.77l-9,.38-.39.27A17,17,0,0,1,155.4,214c-2.31,1.18-5,1.25-7.6,1.24a32.27,32.27,0,0,1-7.41-.62,12.33,12.33,0,0,1-6.11-3.27l-9-.37c-4.71-.2-9.67-.36-13.89,1.77-6.12,3.08-9.14,10.23-9.9,17a84.83,84.83,0,0,0-.19,11.61,5.41,5.41,0,0,1,2.06,2.16c4,2.38,8.18,8,12.27,8.05l0-.71c-.91-4.53-1-9.28.57-13.59l-.57,13.59c.1.52.21,1,.33,1.55,1.2,5,3.18,9.74,4.58,14.66a65,65,0,0,1,2.32,21.85l.17,0,53.7-.88c0-.05,0-.09,0-.13l.05.13H177l-.24-.13c-.35-1.08,0-.75-.35-3.69l-.16.41a65.15,65.15,0,0,1,.51-22.37c.85-4.29,2.14-8.5,3-12.8l-1.06-17.25c.31,5.09,2.24,10,1.45,15.07-.11.73-.25,1.46-.39,2.18l0,.38c-.22.29.33.55.71.55a51.38,51.38,0,0,0,12.64-1.64l.11.36C192.68,242.27,193.68,235.37,192.93,228.56Z" transform="translate(-47.8 -134.08)"/><path class="cls-4" d="M193.43,228.56c-1.06-8.58-5.38-17.16-14.56-18.94-5.23-1-10.78-.33-16.06-.1-2.57.1-2.83,0-4.58,1.68-2.77,2.66-5.79,3.47-9.56,3.52a30.2,30.2,0,0,1-8.9-.8,13.1,13.1,0,0,1-4.57-2.4c-1-.78-.95-.69-2.41-.75-5.51-.23-11.33-1-16.8,0-9.21,1.62-13.87,10-14.93,18.66a72.33,72.33,0,0,0-.27,10.51,3.46,3.46,0,0,0,.28,1.89c.15.23,1.53,1.63,1.88,2a8,8,0,0,0,1,.72c3.64,2.53,6.93,7.26,11.7,7.58a.51.51,0,0,0,.5-.5c.08-2-.54-3.9-.62-5.86a22.48,22.48,0,0,1,1.2-8.3l-1-.14c-.19,4.49-.89,9.25-.55,13.73.21,2.81,1.51,5.81,2.4,8.47,1,3,2.07,6,2.87,9.07a66,66,0,0,1,1.94,20.38.5.5,0,0,0,.5.5c8.59-.68,17.41-.3,26-.44l27.84-.46a.52.52,0,0,0,.49-.64l-.05-.12-1,.26,0,.13a.54.54,0,0,0,.48.37H177a.5.5,0,0,0,.25-.93c-.36-.2-.3-3-.34-3.39a.5.5,0,0,0-1-.13l-.16.41h1a65.6,65.6,0,0,1,.5-22.1c.67-3.38,1.61-6.7,2.39-10a13.26,13.26,0,0,0,.56-3.86c-.28-5.43-.67-10.85-1-16.28h-1c.27,3.44,1.16,6.77,1.51,10.19a21,21,0,0,1-.16,5.48c-.09.54-.5,1.63-.27,2.23.53,1.35,2.87.76,4,.69a54.82,54.82,0,0,0,10-1.57l-.61-.35.11.36c.16.52,1,.45,1-.13-.47-6.85.38-13.7-.29-20.54-.07-.63-1.07-.64-1,0,.67,6.84-.18,13.69.29,20.54l1-.14-.11-.36a.51.51,0,0,0-.61-.35,52.06,52.06,0,0,1-8.41,1.44c-.58.05-3.84.61-4.31.14-.24-.25.32-2.22.36-2.49.72-5.12-1-10.08-1.44-15.14-.05-.63-1-.64-1,0,.34,5.48,1,11,1,16.51a23.44,23.44,0,0,1-1.09,5.64c-.86,3.5-1.77,7-2.32,10.54a67.11,67.11,0,0,0,0,19.86c.08.55.81.4,1,0l.15-.4-1-.14c.12,1-.26,3.63.83,4.25l.26-.93c-.23,0-.15.07.24.25-.22-.59-1.16-.36-1,.26l0,.13.48-.63-26.85.44-13.42.22-6.47.11-3.48.06c-.42,0-3.3.33-3.48.05.22.33.42-1.53.43-1.78,0-.92,0-1.84,0-2.76,0-2.14-.16-4.29-.4-6.42a66.83,66.83,0,0,0-2.31-11.37c-1.64-5.54-4.8-11.37-4.55-17.24l.48-11.56c0-.59-.8-.64-1-.13a22.16,22.16,0,0,0-1.25,6.84c0,.7.93,7.21.64,7.41-.06,0-2.73-1.42-2.9-1.52a24.16,24.16,0,0,1-3-2.27c-1.59-1.35-3.21-2.66-4.83-4a14.71,14.71,0,0,1-2.15-2.17c-.73-1-.54-2.29-.56-3.49a54.72,54.72,0,0,1,.44-9.49c.75-4.76,2.59-9.67,6.17-13,4.42-4.12,10.43-4.27,16.12-4.06a82.23,82.23,0,0,1,8.31.35c2.14.3,3.88,2.15,6,2.88a23.87,23.87,0,0,0,7.18,1,25.29,25.29,0,0,0,8-.6,12.5,12.5,0,0,0,5-3.19,4,4,0,0,1,3.43-1.38l5-.21c6-.25,12.69-.83,17.74,3.1,4.61,3.59,6.67,9.52,7.36,15.14C192.5,229.19,193.5,229.2,193.43,228.56Z" transform="translate(-47.8 -134.08)"/></g><g id="Jesse"><path id="face" class="cls-5" d="M170.33,174.62c-4.94,17.42-11,32.79-24.67,32.79s-21.42-14.84-23.83-32.79c-2.59-19.34,10.21-32.79,23.83-32.79S175.27,157.2,170.33,174.62Z" transform="translate(-47.8 -134.08)"/><path id="lips" class="cls-6" d="M156.53,193.59c-.93-.38-5.73-2.87-6.75-2.8s-2.45.27-2.95,1.1a3.08,3.08,0,0,0-2.61-.6c-1.41.33-2.6,1.41-4,1.93-2.5,1-2.86.51-.33,2.1-2-1.35.19.32.37.45a12.23,12.23,0,0,0,15-.87c.28-.24-1.1-.7,0,0,.29,0-.29,0,0,0" transform="translate(-47.8 -134.08)"/><path id="nose" d="M147.59,184.56c-.71.51-2.33.51-2.86-.37-.44-.71.41-2.26.59-3a10,10,0,0,0,.39-3.71c0-.53-.87-1.37-.84-.83a14.17,14.17,0,0,1-.6,5.18c-.28.85-.92,1.74-.4,2.61a3.06,3.06,0,0,0,4.14.8C148.45,185,148,184.24,147.59,184.56Z" transform="translate(-47.8 -134.08)"/><g id="eyeWhite"><path id="eyeWhite-2" data-name="eyeWhite" class="cls-7" d="M141.47,172.8c-1.31-1.15-2.7-2.32-4.51-2.49-2.12-.21-4.1.91-6.11,1.4-.52.12-.3.93.22.8l.18.08a.38.38,0,0,0,.2.27c2.47,1.41,5.29,1.21,8,1a.43.43,0,0,0,.39-.39l1.29,0A.42.42,0,0,0,141.47,172.8Z" transform="translate(-47.8 -134.08)"/><path id="eyeWhite-3" data-name="eyeWhite" class="cls-7" d="M161,171.44c-2-.49-4-1.61-6.11-1.4-1.81.17-3.19,1.34-4.51,2.49a.42.42,0,0,0,.3.71l1.29,0a.43.43,0,0,0,.39.39c2.75.2,5.57.4,8-1a.38.38,0,0,0,.2-.27l.18-.08C161.28,172.37,161.5,171.56,161,171.44Z" transform="translate(-47.8 -134.08)"/></g><g id="pupil"><circle id="pupil-2" data-name="pupil" cx="107.96" cy="37.79" r="2.03"/><circle id="pupil-3" data-name="pupil" cx="88.39" cy="38.06" r="2.03"/></g><g id="blinkingLashes"><g id="blinkingLashes-2" data-name="blinkingLashes"><path d="M129.94,172.73a6.59,6.59,0,0,0,2.59.61.21.21,0,0,1,.24.15.24.24,0,0,1,.09.11l.15,0a.22.22,0,0,1,.22.14.23.23,0,0,1,.16.13,2.21,2.21,0,0,0,.68.06.38.38,0,0,1,.4.28,2.38,2.38,0,0,0,.68-.15.19.19,0,0,1,.27.08.24.24,0,0,1,.12.07l.13-.07a.23.23,0,0,1,.26.07h0l.58-.16a.43.43,0,0,1,.45.17.65.65,0,0,0,.18-.15.38.38,0,0,1,.46-.1c.22-.06.45-.1.67-.18a.42.42,0,0,1,.26.8,7.23,7.23,0,0,1-1,.25,1.52,1.52,0,0,1-.59.31.41.41,0,0,1-.48-.21l-.39.11a.38.38,0,0,1-.35,0l-.44.23c-.23.11-.42.24-.65.07a.22.22,0,0,1-.08-.18.8.8,0,0,1-.55,0,.27.27,0,0,1-.13-.21,1.25,1.25,0,0,1-.56-.14l-.08,0-.17,0a.39.39,0,0,1-.26-.2l-.47.09c-.25.05-.47.12-.64-.11a.19.19,0,0,1,0-.19.8.8,0,0,1-.53-.19.24.24,0,0,1-.06-.23,1.29,1.29,0,0,1-.5-.29C130.4,173.29,129.67,172.6,129.94,172.73Z" transform="translate(-47.8 -134.08)"/><path d="M128.5,172a6.72,6.72,0,0,0,2.59.61.19.19,0,0,1,.23.15.22.22,0,0,1,.09.1l.15,0a.24.24,0,0,1,.23.13.26.26,0,0,1,.14.42c-.23.28-.7.32-1,.39s-.47.11-.64-.11a.21.21,0,0,1,0-.19.78.78,0,0,1-.53-.19.29.29,0,0,1-.07-.24,1.13,1.13,0,0,1-.49-.28C129,172.5,128.23,171.82,128.5,172Z" transform="translate(-47.8 -134.08)"/><path d="M143.94,173.56a6.57,6.57,0,0,1-2.65-.23.21.21,0,0,0-.27.07.25.25,0,0,0-.12.08.57.57,0,0,0-.13-.08.23.23,0,0,0-.26.06.26.26,0,0,0-.26.35c.13.34.56.52.86.69s.42.25.65.09a.19.19,0,0,0,.08-.17.77.77,0,0,0,.56,0,.27.27,0,0,0,.14-.2,1.13,1.13,0,0,0,.56-.12C143.34,173.94,144.24,173.51,143.94,173.56Z" transform="translate(-47.8 -134.08)"/><path d="M142.54,173.88a6.74,6.74,0,0,1-2.65-.22.2.2,0,0,0-.27.07.24.24,0,0,0-.12.07l-.13-.08a.21.21,0,0,0-.25.06.26.26,0,0,0-.27.35c.13.34.56.53.87.69s.41.26.64.1a.22.22,0,0,0,.08-.18.83.83,0,0,0,.56,0,.26.26,0,0,0,.14-.21,1.13,1.13,0,0,0,.56-.12C141.94,174.27,142.84,173.84,142.54,173.88Z" transform="translate(-47.8 -134.08)"/><path d="M141.23,173.94a6.74,6.74,0,0,1-2.65-.22.2.2,0,0,0-.27.06.25.25,0,0,0-.12.08.57.57,0,0,0-.13-.08.21.21,0,0,0-.25.06.26.26,0,0,0-.27.35c.13.34.56.52.87.69s.41.25.64.09a.19.19,0,0,0,.08-.17.77.77,0,0,0,.56,0,.23.23,0,0,0,.14-.2,1.13,1.13,0,0,0,.56-.12C140.63,174.32,141.53,173.9,141.23,173.94Z" transform="translate(-47.8 -134.08)"/><path d="M127.67,171a6.59,6.59,0,0,0,2.59.61.21.21,0,0,1,.24.15.24.24,0,0,1,.09.11l.15,0a.22.22,0,0,1,.22.14.26.26,0,0,1,.15.41,1.75,1.75,0,0,1-1,.39c-.25.05-.47.12-.64-.11a.19.19,0,0,1,0-.19.8.8,0,0,1-.53-.19.24.24,0,0,1-.06-.23,1.29,1.29,0,0,1-.5-.29C128.13,171.58,127.4,170.89,127.67,171Z" transform="translate(-47.8 -134.08)"/></g><g id="blinkingLashes-3" data-name="blinkingLashes"><path d="M162.56,171.87a6.64,6.64,0,0,1-2.56.72.21.21,0,0,0-.23.16.21.21,0,0,0-.08.11l-.15,0a.21.21,0,0,0-.22.14.27.27,0,0,0-.16.14,2.46,2.46,0,0,1-.67.09.37.37,0,0,0-.38.29,2.34,2.34,0,0,1-.7-.12.2.2,0,0,0-.26.09.36.36,0,0,0-.12.08l-.13-.06a.21.21,0,0,0-.25.07h0a5.61,5.61,0,0,0-.59-.13.41.41,0,0,0-.44.19.83.83,0,0,1-.19-.15.36.36,0,0,0-.45-.08c-.23,0-.46-.08-.68-.14a.42.42,0,0,0-.23.8,7.23,7.23,0,0,0,1,.21,1.44,1.44,0,0,0,.6.28.41.41,0,0,0,.47-.23l.4.09a.35.35,0,0,0,.34-.06l.46.21c.23.1.43.22.65,0a.24.24,0,0,0,.07-.18.8.8,0,0,0,.55-.06.24.24,0,0,0,.12-.21,1.19,1.19,0,0,0,.55-.17l.08,0,.17,0a.46.46,0,0,0,.25-.22l.47.07c.26,0,.48.1.64-.13a.22.22,0,0,0,0-.19.84.84,0,0,0,.52-.22.24.24,0,0,0,.05-.23,1.21,1.21,0,0,0,.48-.31C162.13,172.44,162.82,171.73,162.56,171.87Z" transform="translate(-47.8 -134.08)"/><path d="M164,171a6.69,6.69,0,0,1-2.56.72.2.2,0,0,0-.23.16.2.2,0,0,0-.09.11.33.33,0,0,0-.15,0,.22.22,0,0,0-.21.14.26.26,0,0,0-.13.42,1.7,1.7,0,0,0,1.05.35c.26,0,.48.09.64-.14a.21.21,0,0,0,0-.19.83.83,0,0,0,.52-.21.29.29,0,0,0,0-.24,1,1,0,0,0,.48-.31C163.54,171.6,164.23,170.88,164,171Z" transform="translate(-47.8 -134.08)"/><path d="M148.61,173.31a6.89,6.89,0,0,0,2.64-.34.19.19,0,0,1,.27.05.33.33,0,0,1,.13.07.57.57,0,0,1,.13-.08.21.21,0,0,1,.25,0,.27.27,0,0,1,.28.34c-.12.35-.54.55-.83.73s-.4.27-.64.12a.18.18,0,0,1-.09-.17.77.77,0,0,1-.56,0,.26.26,0,0,1-.15-.19,1.25,1.25,0,0,1-.56-.1C149.23,173.66,148.32,173.28,148.61,173.31Z" transform="translate(-47.8 -134.08)"/><path d="M150,173.57a6.89,6.89,0,0,0,2.64-.34.21.21,0,0,1,.28.06l.12.06.13-.08a.21.21,0,0,1,.25,0,.26.26,0,0,1,.28.34c-.12.34-.54.55-.83.72s-.4.28-.64.13a.21.21,0,0,1-.09-.17.9.9,0,0,1-.56,0,.3.3,0,0,1-.15-.2,1.14,1.14,0,0,1-.56-.1C150.64,173.93,149.73,173.54,150,173.57Z" transform="translate(-47.8 -134.08)"/><path d="M151.33,173.57a6.86,6.86,0,0,0,2.64-.34.21.21,0,0,1,.28.06.27.27,0,0,1,.12.06l.13-.08a.21.21,0,0,1,.25,0,.26.26,0,0,1,.28.34c-.11.34-.54.55-.83.72s-.4.28-.64.13a.21.21,0,0,1-.09-.17.9.9,0,0,1-.56,0,.3.3,0,0,1-.15-.2,1.14,1.14,0,0,1-.56-.1C152,173.93,151,173.54,151.33,173.57Z" transform="translate(-47.8 -134.08)"/><path d="M164.76,170.07a7.12,7.12,0,0,1-2.57.72.18.18,0,0,0-.22.15.31.31,0,0,0-.09.11l-.15,0a.23.23,0,0,0-.22.14.26.26,0,0,0-.13.42,1.8,1.8,0,0,0,1.06.35c.25,0,.47.09.63-.14a.19.19,0,0,0,0-.19.81.81,0,0,0,.52-.21.3.3,0,0,0,.06-.24,1.25,1.25,0,0,0,.48-.31C164.33,170.64,165,169.92,164.76,170.07Z" transform="translate(-47.8 -134.08)"/></g></g><g id="eyes"><path id="eyes-2" data-name="eyes" d="M129.54,171.57m.67.64c3.55,3.39,8.18,1.71,12.16,1.55l.06,0c.39.18.73-.4.34-.58-2.19-1-3.25-3.29-5.86-3.51a15.41,15.41,0,0,0-5,.88c-.07-.07,2.28-.38,2.15-.38s-1,.12-1,.15l-.15,0h-.06a.47.47,0,0,0-.17,0h-.08l-.06,0-.08,0a28.47,28.47,0,0,1-4-.37,12,12,0,0,1-1.26-.49c-.08,0,.91.45.82.42l-.11-.07-.06,0a8,8,0,0,0-1.65-.73c-.18.09,1.29,1.21,2,1.72l-.09-.05.15.09a1.58,1.58,0,0,0,.34.2l.83.56m1.4.47c1.38-.35,2.65-1.1,4.1-1.48a5,5,0,0,1,4.71,1.13c.58.51,1.1,1,1.68,1.47C137.93,173.56,133.45,175.12,130.94,172Z" transform="translate(-47.8 -134.08)"/><g id="eyes-3" data-name="eyes"><path d="M159.24,170.07a.48.48,0,0,0-.18,0H159l.84.15-.57-.19h0Z" transform="translate(-47.8 -134.08)"/><path id="eye" d="M165.68,168.79c-.06-.06-.56.17-1,.39l-.77.39,0,0,0,0,.07,0,.05,0,.65-.33h0a10.1,10.1,0,0,1-1.26.49,28.32,28.32,0,0,1-4,.37l-.08,0h-.09l.57.19c.1,0,.16,0,.15.05l-.15-.05-.84-.15h0c-.59-.09-1.21-.17-1.14-.17s1,.11,1,.14a.42.42,0,0,1,.13,0h.08a.48.48,0,0,1,.18,0h0a15.33,15.33,0,0,0-4.24-.64c-2.62.22-3.68,2.49-5.87,3.51-.39.18,0,.76.34.58l.06,0c4,.16,8.62,1.84,12.16-1.55l.67-.64c.28-.19.62-.42.84-.55a3.63,3.63,0,0,0,.34-.21l.15-.09-.1.05C164.4,170,165.86,168.87,165.68,168.79Zm-15.17,4.11c.59-.45,1.1-1,1.69-1.47a5,5,0,0,1,4.7-1.14c1.46.38,2.72,1.13,4.11,1.48C158.5,174.85,154,173.3,150.51,172.9Z" transform="translate(-47.8 -134.08)"/></g></g><path id="Hair" class="cls-8" d="M172.06,257.08l-.18.63c-4.76,16.66-7.14,20.31,5.87.08,2.59,2.45-4.6,18.82-1.79,14.9,1.74-2.42,7.06-11,8.08-13.82,1.62-.12-4.13,13.34,4.21-2.87,5.5-10.71,2.69-22.09-2.92-32-1.35-2.38-3.48-4.86-4.33-7.48s0-5.34.46-8a47.69,47.69,0,0,0-.15-16.47,15.83,15.83,0,0,0,.15-2.69c-.23-7.36-.42-15.07-2-22.29a42.18,42.18,0,0,0-3.4-9.86c-4.12-13.45-13-24.89-28.66-22.27-15.53-4.57-25.69,10.23-30.68,22.69-2.9,7.25-5.13,15.4-4.66,23.29a26.25,26.25,0,0,0,.44,3.52c0,.07,0,.13,0,.19.08,6.57,5.31,15.23,1.28,21.18a3.55,3.55,0,0,0-.49,3.38c-1.47,3.81-3,7.65-2.68,11.56.56,8.12,7.26,14.49,7.33,22.54,0,2.34-5.1,33.93,2.24,8.08.19,5-1,8.22-2.63,13.43-1,3.08,3.41-4.72,6.23-4.4-1.58,4.51-1.49,21.6.77,13.18,1.58-5.9,7.24-7.28,9-11.8a17.63,17.63,0,0,0,2.3-9.28c-.09-5.32-2.37-10.31-2.57-15.59s2.25-10.34,3.13-15.53a42.49,42.49,0,0,0-.71-16,3.86,3.86,0,0,0-1.1-2.07l-3.6-4.75c-.53-.9-2.1-4.19-2-3.66,0,.16.09.32.13.48a1.9,1.9,0,0,1-.13-.48,11.56,11.56,0,0,0-.54-1.53,49.83,49.83,0,0,1-2.21-9.35c-.62-6.46-.87-14.4,2.41-22.1l2.31,6.67c.13-1.14,1.19-4.09,1.22-5.22.18,1.18.72,2.29.87,3.49.56,4.21.93.09,1.51-.5.07.34.74-2.63.82-2.29.35,1.58,2.84,5.21,2.49,3.63-.29-1.31-.41-4.74-.52-6,.17,0,.45,4.44.61,4.4s.07-2.38.18-2.43L140,169c.52-.22.07-5.49.22-4.18.39,3.44.22-2.56,1-5.79,0-.12,0-.24,0-.36,0-.27.05-.57.05-.44s0,.3-.05.44,0,.46,0,.34v0a24.38,24.38,0,0,0,.28,7.5c.17.84.91,4.73,1.7.74.43,0,.7,4.26,1.07-.62.12-1.53.47,1.78.53,1.61,0,.38.09-1.71.31-1.34,1.64,2.88.41,3,1.88-.14a3.39,3.39,0,0,0,.21-1.68l0-.38a10.26,10.26,0,0,1-.09-1.45c0,.48.05,1,.09,1.45l0,.38c0,.38.06.75.1,1.12l.2-.24a14.26,14.26,0,0,1,1,3c.33-.07.72-.62,1.2-2,0,.25.08.48.11.69a1,1,0,0,1,.06.29l.94,1.89c0-.06.05-.13.08-.21v0l.88-6.13c.21-.06-.14,4.83,0,4.68s.56-5,.56-5-.16,5.48-.11,5.58c0,.36.26-4.53.27-4.17,0,1.3-.24,2.16,1.8,3.72-1.06-1.75-.72-1.36-.93-2a1.1,1.1,0,0,1,0-1.11,1.43,1.43,0,0,0,0,1.11c.31.57,1.09.91,1,1.66a24.13,24.13,0,0,0,.58-3.51l-.12-2.27c.13-1.41.45,1.43.34,0,.34,1.9.87,3.6.57,5.53-.25,1.58,1.45-1.77,1.7-3.36a16.61,16.61,0,0,0,.18-2.79c0,.43.07.85.11,1.27a18.28,18.28,0,0,0-.19,3.13,21.67,21.67,0,0,0,.57,2.56c.27-.63.88-1.56.27-2.53.58.94,0,2,.35,2.7.29-.46.69-1.43,1.33-2.73a3.11,3.11,0,0,0,.1-1.06.69.69,0,0,0,.11-.13s0-.63,0-.6c1.75,5.37,1,5.64,2.46,1,.75,3.56-.87,5.75,2.06-.41.37,5.62,1.15,11.26,1.62,16.76l.37,4.3c-2.72,4.62-7.63,13.93-7.81,16.83,0,.25,0-.24,0,0-.38,4.15-.6,7.86-.25,6.58-2.1,7-.13,12.94,2,19.93,1.23,4.08,3.92,7.5,5.36,11.49,2.16,6,5.35,10,6,12.49" transform="translate(-47.8 -134.08)"/><path id="lipsSmile" class="cls-6" d="M157.35,193.14c-.93-.37-6.55-2.42-7.57-2.35s-2.45.27-2.95,1.1a3.08,3.08,0,0,0-2.61-.6c-1.41.33-2.6,1.41-4,1.93-2.5,1-3.77-.19-.33,2.1-2-1.35.19.32.37.45a12.23,12.23,0,0,0,15-.87c.28-.24-1.1-.7,0,0,.29,0-.29,0,0,0" transform="translate(-47.8 -134.08)"/></g></svg>